<?xml version="1.0" encoding="UTF-8" standalone="no"?>
<svg
   xmlns:osb="http://www.openswatchbook.org/uri/2009/osb"
   xmlns:dc="http://purl.org/dc/elements/1.1/"
   xmlns:cc="http://creativecommons.org/ns#"
   xmlns:rdf="http://www.w3.org/1999/02/22-rdf-syntax-ns#"
   xmlns:svg="http://www.w3.org/2000/svg"
   xmlns="http://www.w3.org/2000/svg"
   xmlns:xlink="http://www.w3.org/1999/xlink"
   xmlns:sodipodi="http://sodipodi.sourceforge.net/DTD/sodipodi-0.dtd"
   xmlns:inkscape="http://www.inkscape.org/namespaces/inkscape"
   version="1.1"
   id="Layer_1"
   x="0px"
   y="0px"
   width="432px"
   height="576px"
   viewBox="0 0 432 576"
   enable-background="new 0 0 432 576"
   xml:space="preserve"
   sodipodi:docname="7_Segment_Display_with_Labeled_Segments.svg"
   inkscape:version="1.0.2-2 (e86c870879, 2021-01-15)"><metadata
   id="metadata138"><rdf:RDF><cc:Work
       rdf:about=""><dc:format>image/svg+xml</dc:format><dc:type
         rdf:resource="http://purl.org/dc/dcmitype/StillImage" /></cc:Work></rdf:RDF></metadata><defs
   id="defs136"><rect
     x="70.736842"
     y="22.905263"
     width="21.557895"
     height="42.442105"
     id="rect2995" /><linearGradient
     id="linearGradient1007"
     osb:paint="solid"><stop
       style="stop-color:#8c79b6;stop-opacity:1;"
       offset="0"
       id="stop1005" /></linearGradient><linearGradient
     inkscape:collect="always"
     id="linearGradient993"
     osb:paint="gradient"><stop
       style="stop-color:#000000;stop-opacity:1;"
       offset="0"
       id="stop989" /><stop
       style="stop-color:#000000;stop-opacity:0;"
       offset="1"
       id="stop991" /></linearGradient><linearGradient
     id="linearGradient977"
     osb:paint="solid"><stop
       style="stop-color:#000000;stop-opacity:0.50980395;"
       offset="0"
       id="stop975" /></linearGradient><linearGradient
     id="linearGradient967"
     osb:paint="solid"><stop
       style="stop-color:#000000;stop-opacity:1;"
       offset="0"
       id="stop965" /></linearGradient><filter
     inkscape:collect="always"
     style="color-interpolation-filters:sRGB"
     id="filter1001"
     x="-0.010670194"
     width="1.0213404"
     y="-0.0084063158"
     height="1.0168126"><feGaussianBlur
       inkscape:collect="always"
       stdDeviation="1.5125469"
       id="feGaussianBlur1003" /></filter><linearGradient
     inkscape:collect="always"
     xlink:href="#linearGradient1007"
     id="linearGradient1009"
     x1="43.527782"
     y1="290.69472"
     x2="390.99854"
     y2="290.69472"
     gradientUnits="userSpaceOnUse" /><linearGradient
     inkscape:collect="always"
     xlink:href="#linearGradient977"
     id="linearGradient1015"
     x1="43.527782"
     y1="290.69473"
     x2="390.99854"
     y2="290.69473"
     gradientUnits="userSpaceOnUse" /></defs><sodipodi:namedview
   pagecolor="#ffffff"
   bordercolor="#666666"
   borderopacity="1"
   objecttolerance="10"
   gridtolerance="10"
   guidetolerance="10"
   inkscape:pageopacity="0"
   inkscape:pageshadow="2"
   inkscape:window-width="1920"
   inkscape:window-height="1051"
   id="namedview134"
   showgrid="false"
   inkscape:zoom="1.484375"
   inkscape:cx="86.315789"
   inkscape:cy="288"
   inkscape:window-x="-9"
   inkscape:window-y="-9"
   inkscape:window-maximized="1"
   inkscape:current-layer="Layer_1" />
<g
   id="g131"
   transform="matrix(0.64650881,0,0,0.69411722,76.353919,88.094241)">
	<g
   id="g89">
		<polygon
   fill="#d1d3d4"
   stroke="#000000"
   stroke-width="4"
   stroke-miterlimit="10"
   points="242.759,323.928 98.759,323.928 62.759,287.927 98.759,251.927 242.759,251.927 278.759,287.927 "
   id="polygon75" />
		<polygon
   fill="#d1d3d4"
   stroke="#000000"
   stroke-width="4"
   stroke-miterlimit="10"
   points="242.759,556.74 98.759,556.74 62.759,520.74 98.759,484.74 242.759,484.74 278.759,520.74 "
   id="polygon77" />
		<polygon
   fill="#d1d3d4"
   stroke="#000000"
   stroke-width="4"
   stroke-miterlimit="10"
   points="323.759,331.928 323.759,475.928 287.759,511.928 251.759,475.928 251.759,331.928 287.759,295.928 "
   id="polygon79" />
		<polygon
   fill="#d1d3d4"
   stroke="#000000"
   stroke-width="4"
   stroke-miterlimit="10"
   points="89.758,331.928 89.758,475.928 53.758,511.928 17.758,475.928 17.758,331.928 53.758,295.928 "
   id="polygon81" />
		<polygon
   fill="#d1d3d4"
   stroke="#000000"
   stroke-width="4"
   stroke-miterlimit="10"
   points="242.759,91.26 98.759,91.26 62.759,55.26 98.759,19.26 242.759,19.26 278.759,55.26 "
   id="polygon83" />
		<polygon
   fill="#d1d3d4"
   stroke="#000000"
   stroke-width="4"
   stroke-miterlimit="10"
   points="323.759,100.427 323.759,244.427 287.759,280.427 251.759,244.427 251.759,100.427 287.759,64.427 "
   id="polygon85" />
		<polygon
   fill="#d1d3d4"
   stroke="#000000"
   stroke-width="4"
   stroke-miterlimit="10"
   points="89.759,100.427 89.759,244.427 53.758,280.427 17.758,244.427 17.758,100.427 53.758,64.427 "
   id="polygon87" />
	</g>
	<g
   id="g119">
		<g
   id="g93">
			<path
   d="m 151.266,71.178 24.346,-42.949 h 6.768 l 7.09,42.949 h -5.566 l -2.08,-12.363 H 164.45 l -6.885,12.363 z M 166.911,54.391 H 181.12 L 179.45,43.61 c -0.645,-4.277 -1.046,-7.841 -1.201,-10.693 -0.978,2.461 -2.402,5.381 -4.277,8.76 z"
   id="path91" />
		</g>
		<g
   id="g97">
			<path
   d="m 266.515,190.846 8.994,-42.949 h 13.301 c 2.422,0 4.219,0.098 5.391,0.293 1.914,0.333 3.53,0.913 4.849,1.743 1.318,0.831 2.339,1.963 3.062,3.398 0.723,1.435 1.084,3.022 1.084,4.761 0,2.363 -0.649,4.443 -1.948,6.24 -1.299,1.797 -3.286,3.164 -5.962,4.102 2.324,0.762 4.063,1.909 5.215,3.442 1.152,1.534 1.729,3.325 1.729,5.376 0,2.363 -0.679,4.629 -2.036,6.797 -1.357,2.168 -3.154,3.843 -5.391,5.024 -2.236,1.182 -4.731,1.772 -7.485,1.772 h -20.803 z m 6.767,-4.864 h 9.785 c 2.598,0 4.346,-0.088 5.244,-0.264 1.816,-0.312 3.291,-0.845 4.424,-1.597 1.133,-0.751 2.021,-1.743 2.666,-2.974 0.645,-1.231 0.967,-2.52 0.967,-3.867 0,-2.011 -0.63,-3.54 -1.89,-4.585 -1.26,-1.044 -3.657,-1.567 -7.192,-1.567 h -10.898 z m 4.131,-19.746 h 8.701 c 4.16,0 7.153,-0.664 8.979,-1.992 1.826,-1.328 2.739,-3.262 2.739,-5.801 0,-1.211 -0.283,-2.256 -0.85,-3.135 -0.567,-0.879 -1.323,-1.519 -2.271,-1.919 -0.947,-0.4 -2.729,-0.601 -5.347,-0.601 h -9.141 z"
   id="path95" />
		</g>
		<g
   id="g101">
			<path
   d="m 300.089,405.396 5.684,0.791 c -1.797,4.961 -4.414,8.711 -7.852,11.25 -3.438,2.539 -7.295,3.809 -11.572,3.809 -5.215,0 -9.351,-1.592 -12.407,-4.775 -3.056,-3.183 -4.585,-7.744 -4.585,-13.682 0,-7.734 2.324,-14.131 6.973,-19.189 4.141,-4.512 9.287,-6.768 15.439,-6.768 4.551,0 8.237,1.221 11.06,3.662 2.823,2.441 4.458,5.723 4.907,9.844 l -5.361,0.498 c -0.566,-3.105 -1.733,-5.425 -3.501,-6.958 -1.768,-1.533 -4.048,-2.3 -6.841,-2.3 -5.254,0 -9.502,2.334 -12.744,7.002 -2.813,4.023 -4.219,8.799 -4.219,14.326 0,4.414 1.084,7.783 3.252,10.107 2.168,2.324 4.99,3.486 8.467,3.486 2.969,0 5.654,-0.967 8.057,-2.9 2.403,-1.933 4.149,-4.668 5.243,-8.203 z"
   id="path99" />
		</g>
		<g
   id="g105">
			<path
   d="m 151.087,540.012 8.965,-42.949 h 12.95 c 3.105,0 5.479,0.225 7.119,0.674 2.344,0.605 4.345,1.685 6.006,3.237 1.659,1.553 2.909,3.491 3.75,5.815 0.839,2.324 1.26,4.932 1.26,7.822 0,3.457 -0.523,6.606 -1.568,9.448 -1.045,2.842 -2.412,5.342 -4.102,7.5 -1.69,2.158 -3.457,3.848 -5.303,5.068 -1.846,1.22 -4.027,2.124 -6.547,2.71 -1.915,0.449 -4.268,0.674 -7.061,0.674 h -15.469 z m 6.768,-4.864 h 6.797 c 3.066,0 5.791,-0.283 8.174,-0.85 1.483,-0.352 2.754,-0.869 3.809,-1.553 1.386,-0.879 2.646,-2.041 3.779,-3.486 1.483,-1.914 2.67,-4.097 3.559,-6.548 0.889,-2.451 1.334,-5.239 1.334,-8.364 0,-3.477 -0.606,-6.147 -1.816,-8.013 -1.212,-1.865 -2.754,-3.101 -4.629,-3.706 -1.388,-0.449 -3.545,-0.674 -6.475,-0.674 h -7.588 z"
   id="path103" />
		</g>
		<g
   id="g109">
			<path
   d="m 33.269,421.513 8.994,-42.949 h 30.996 l -1.025,4.893 H 46.98 l -2.813,13.359 h 24.609 l -1.025,4.893 H 43.142 l -3.105,14.941 h 27.041 l -1.025,4.863 H 33.269 Z"
   id="path107" />
		</g>
		<g
   id="g113">
			<path
   d="m 33.298,191.846 8.965,-42.949 h 27.92 l -1.025,4.893 H 46.98 l -2.842,13.682 h 22.588 l -1.025,4.893 H 43.113 l -4.072,19.482 h -5.743 z"
   id="path111" />
		</g>
		<g
   id="g117">
			<path
   d="m 173.001,289.412 1.025,-4.863 h 18.809 l -3.662,17.49 c -2.363,1.484 -5.059,2.695 -8.086,3.633 -3.027,0.938 -6.006,1.406 -8.936,1.406 -6.25,0 -10.918,-1.885 -14.004,-5.654 -2.598,-3.184 -3.896,-7.275 -3.896,-12.275 0,-5.156 1.138,-9.848 3.413,-14.077 2.275,-4.229 5.146,-7.354 8.613,-9.375 3.467,-2.021 7.319,-3.032 11.558,-3.032 3.047,0 5.781,0.552 8.203,1.655 2.422,1.104 4.277,2.578 5.566,4.424 1.289,1.846 2.217,4.253 2.783,7.222 l -5.625,0.615 c -0.605,-2.949 -1.86,-5.21 -3.765,-6.782 -1.904,-1.572 -4.351,-2.358 -7.339,-2.358 -3.105,0 -6.006,0.845 -8.701,2.534 -2.695,1.689 -4.849,4.238 -6.46,7.646 -1.611,3.409 -2.417,7.28 -2.417,11.616 0,4.316 1.064,7.578 3.193,9.785 2.129,2.207 5.068,3.311 8.818,3.311 3.73,0 7.744,-1.23 12.041,-3.691 l 1.934,-9.229 h -13.065 z"
   id="path115" />
		</g>
	</g>
	<g
   id="g129">
		<circle
   fill="#d1d3d4"
   stroke="#000000"
   stroke-width="4"
   stroke-miterlimit="10"
   cx="373.241"
   cy="515.73999"
   r="41"
   id="circle121" />
		<g
   id="g127">
			<path
   d="m 343.874,537.158 7.172,-34.359 h 10.359 c 2.484,0 4.383,0.18 5.695,0.539 1.875,0.484 3.477,1.348 4.805,2.59 1.328,1.242 2.328,2.793 3,4.652 0.672,1.859 1.008,3.945 1.008,6.258 0,2.766 -0.418,5.285 -1.254,7.559 -0.836,2.274 -1.93,4.273 -3.281,6 -1.351,1.727 -2.766,3.078 -4.242,4.055 -1.476,0.977 -3.223,1.699 -5.238,2.168 -1.531,0.359 -3.414,0.539 -5.648,0.539 h -12.376 z m 5.414,-3.89 h 5.438 c 2.453,0 4.633,-0.227 6.539,-0.68 1.188,-0.281 2.203,-0.695 3.047,-1.242 1.109,-0.703 2.117,-1.633 3.023,-2.789 1.188,-1.531 2.137,-3.277 2.848,-5.238 0.711,-1.961 1.066,-4.191 1.066,-6.691 0,-2.781 -0.484,-4.918 -1.453,-6.41 -0.969,-1.492 -2.203,-2.48 -3.703,-2.965 -1.109,-0.359 -2.836,-0.539 -5.18,-0.539 h -6.07 z"
   id="path123" />
			<path
   d="m 378.468,537.158 7.195,-34.359 h 14.344 c 2.484,0 4.348,0.285 5.59,0.855 1.242,0.57 2.27,1.547 3.082,2.93 0.812,1.383 1.219,2.934 1.219,4.652 0,1.422 -0.289,2.867 -0.867,4.336 -0.578,1.469 -1.309,2.68 -2.191,3.633 -0.882,0.953 -1.777,1.672 -2.684,2.156 -0.907,0.484 -1.875,0.844 -2.906,1.078 -2.203,0.516 -4.43,0.773 -6.68,0.773 h -8.602 l -2.906,13.945 h -4.594 z m 8.32,-17.836 h 7.57 c 2.938,0 5.094,-0.316 6.469,-0.949 1.375,-0.633 2.477,-1.598 3.305,-2.895 0.828,-1.297 1.242,-2.672 1.242,-4.125 0,-1.125 -0.219,-2.043 -0.656,-2.754 -0.437,-0.711 -1.055,-1.234 -1.852,-1.57 -0.797,-0.336 -2.328,-0.504 -4.594,-0.504 h -8.813 z"
   id="path125" />
		</g>
	</g>
</g>
<rect
   style="mix-blend-mode:color;fill:url(#linearGradient1015);fill-opacity:1.0;fill-rule:evenodd;stroke:url(#linearGradient1009);stroke-opacity:0.7368421;opacity:0.92131148;filter:url(#filter1001)"
   id="rect140"
   width="340.21054"
   height="431.83157"
   x="47.157894"
   y="74.778946" /><rect
   style="opacity:0.921312;fill:#000000;fill-opacity:0.51012146;fill-rule:evenodd;stroke:#000000;stroke-width:1;stroke-miterlimit:4;stroke-dasharray:none;stroke-opacity:1"
   id="rect2971"
   width="2.694737"
   height="53.221054"
   x="100.37894"
   y="20.884211" /><text
   xml:space="preserve"
   id="text2993"
   style="font-style:normal;font-weight:normal;font-size:40px;line-height:1.25;font-family:sans-serif;white-space:pre;shape-inside:url(#rect2995);fill:#000000;fill-opacity:1;stroke:none;"><tspan
     style="visibility:hidden"
     x="70.736328"
     y="101.84087"><tspan>g</tspan></tspan></text><text
   xml:space="preserve"
   style="font-style:normal;font-weight:normal;font-size:41.3984px;line-height:1.25;font-family:sans-serif;fill:#000000;fill-opacity:1;stroke:none;stroke-width:1.03496"
   x="78.794815"
   y="27.202528"
   id="text3001"
   transform="scale(0.98282547,1.0174746)"><tspan
     sodipodi:role="line"
     id="tspan2999"
     x="78.794815"
     y="27.202528"
     style="stroke-width:1.03496">g</tspan></text><text
   xml:space="preserve"
   style="font-style:normal;font-weight:normal;font-size:41.2316px;line-height:1.25;font-family:sans-serif;fill:#000000;fill-opacity:1;stroke:none;stroke-width:1.03079"
   x="145.39641"
   y="35.160778"
   id="text3005"
   transform="scale(0.97528025,1.0253463)"><tspan
     sodipodi:role="line"
     id="tspan3003"
     x="145.39641"
     y="35.160778"
     style="stroke-width:1.03079">f</tspan></text><rect
   style="opacity:0.921312;fill:#000000;fill-opacity:0.510121;fill-rule:evenodd;stroke:#000000;stroke-width:1;stroke-miterlimit:4;stroke-dasharray:none;stroke-opacity:1"
   id="rect2971-7"
   width="2.694737"
   height="53.221054"
   x="154.27368"
   y="20.547369" /><rect
   style="opacity:0.921312;fill:#000000;fill-opacity:0.510121;fill-rule:evenodd;stroke:#000000;stroke-width:1;stroke-miterlimit:4;stroke-dasharray:none;stroke-opacity:1"
   id="rect2971-0"
   width="2.694737"
   height="53.221054"
   x="206.82106"
   y="20.547367" /><rect
   style="opacity:0.921312;fill:#000000;fill-opacity:0.510121;fill-rule:evenodd;stroke:#000000;stroke-width:1;stroke-miterlimit:4;stroke-dasharray:none;stroke-opacity:1"
   id="rect2971-9"
   width="2.694737"
   height="53.221054"
   x="258.02106"
   y="19.873682" /><rect
   style="opacity:0.921312;fill:#000000;fill-opacity:0.510121;fill-rule:evenodd;stroke:#000000;stroke-width:1;stroke-miterlimit:4;stroke-dasharray:none;stroke-opacity:1"
   id="rect2971-6"
   width="2.694737"
   height="53.221054"
   x="308.54736"
   y="20.547369" /><rect
   style="opacity:0.921312;fill:#000000;fill-opacity:0.510121;fill-rule:evenodd;stroke:#000000;stroke-width:1;stroke-miterlimit:4;stroke-dasharray:none;stroke-opacity:1"
   id="rect2971-4"
   width="2.694737"
   height="53.221054"
   x="97.010529"
   y="506.27368" /><rect
   style="opacity:0.921312;fill:#000000;fill-opacity:0.510121;fill-rule:evenodd;stroke:#000000;stroke-width:1;stroke-miterlimit:4;stroke-dasharray:none;stroke-opacity:1"
   id="rect2971-04"
   width="2.694737"
   height="53.221054"
   x="150.90527"
   y="506.27368" /><rect
   style="opacity:0.921312;fill:#000000;fill-opacity:0.510121;fill-rule:evenodd;stroke:#000000;stroke-width:1;stroke-miterlimit:4;stroke-dasharray:none;stroke-opacity:1"
   id="rect2971-65"
   width="2.694737"
   height="53.221054"
   x="200.7579"
   y="505.59998" /><rect
   style="opacity:0.921312;fill:#000000;fill-opacity:0.510121;fill-rule:evenodd;stroke:#000000;stroke-width:1;stroke-miterlimit:4;stroke-dasharray:none;stroke-opacity:1"
   id="rect2971-5"
   width="2.694737"
   height="53.221054"
   x="252.63158"
   y="504.92633" /><rect
   style="opacity:0.921312;fill:#000000;fill-opacity:0.510121;fill-rule:evenodd;stroke:#000000;stroke-width:1;stroke-miterlimit:4;stroke-dasharray:none;stroke-opacity:1"
   id="rect2971-3"
   width="2.694737"
   height="53.221054"
   x="301.81052"
   y="505.60001" /><text
   xml:space="preserve"
   style="font-style:normal;font-weight:normal;font-size:38.0952px;line-height:1.25;font-family:sans-serif;fill:#000000;fill-opacity:1;stroke:none;stroke-width:0.952381"
   x="162.56715"
   y="34.986496"
   id="text3101"
   transform="scale(1.0555743,0.94735159)"><tspan
     sodipodi:role="line"
     id="tspan3099"
     x="162.56715"
     y="34.986496"
     style="stroke-width:0.952381">gnd</tspan></text><text
   xml:space="preserve"
   style="font-style:normal;font-weight:normal;font-size:38.0952px;line-height:1.25;font-family:sans-serif;fill:#000000;fill-opacity:1;stroke:none;stroke-width:0.952381"
   x="245.97568"
   y="29.853659"
   id="text3105"
   transform="scale(1.0555743,0.94735159)"><tspan
     sodipodi:role="line"
     id="tspan3103"
     x="245.97568"
     y="29.853659"
     style="stroke-width:0.952381">a</tspan></text><text
   xml:space="preserve"
   style="font-style:normal;font-weight:normal;font-size:38.0952px;line-height:1.25;font-family:sans-serif;fill:#000000;fill-opacity:1;stroke:none;stroke-width:0.952381"
   x="295.37918"
   y="32.420074"
   id="text3109"
   transform="scale(1.0555743,0.94735159)"><tspan
     sodipodi:role="line"
     id="tspan3107"
     x="295.37918"
     y="32.420074"
     style="stroke-width:0.952381">b</tspan></text><text
   xml:space="preserve"
   style="font-style:normal;font-weight:normal;font-size:36.8271px;line-height:1.25;font-family:sans-serif;fill:#000000;fill-opacity:1;stroke:none;stroke-width:0.920677"
   x="289.56985"
   y="594.25568"
   id="text3113"
   transform="scale(1.0561343,0.94684927)"><tspan
     sodipodi:role="line"
     id="tspan3111"
     x="289.56985"
     y="594.25568"
     style="stroke-width:0.920677">dp</tspan></text><text
   xml:space="preserve"
   style="font-style:normal;font-weight:normal;font-size:36.8271px;line-height:1.25;font-family:sans-serif;fill:#000000;fill-opacity:1;stroke:none;stroke-width:0.920677"
   x="242.66353"
   y="595.31372"
   id="text3117"
   transform="scale(1.0561343,0.94684927)"><tspan
     sodipodi:role="line"
     id="tspan3115"
     x="242.66353"
     y="595.31372"
     style="stroke-width:0.920677">c</tspan></text><text
   xml:space="preserve"
   style="font-style:normal;font-weight:normal;font-size:36.8271px;line-height:1.25;font-family:sans-serif;fill:#000000;fill-opacity:1;stroke:none;stroke-width:0.920677"
   x="156.09673"
   y="597.35693"
   id="text3121"
   transform="scale(1.0561343,0.94684926)"><tspan
     sodipodi:role="line"
     id="tspan3119"
     x="156.09673"
     y="597.35693"
     style="stroke-width:0.920677">gnd</tspan></text><text
   xml:space="preserve"
   style="font-style:normal;font-weight:normal;font-size:36.8271px;line-height:1.25;font-family:sans-serif;fill:#000000;fill-opacity:1;stroke:none;stroke-width:0.920677"
   x="123.79104"
   y="598.15979"
   id="text3125"
   transform="scale(1.0561343,0.94684926)"><tspan
     sodipodi:role="line"
     id="tspan3123"
     x="123.79104"
     y="598.15979"
     style="stroke-width:0.920677">d</tspan></text><text
   xml:space="preserve"
   style="font-style:normal;font-weight:normal;font-size:36.8271px;line-height:1.25;font-family:sans-serif;fill:#000000;fill-opacity:1;stroke:none;stroke-width:0.920677"
   x="69.582817"
   y="597.90448"
   id="text3129"
   transform="scale(1.0561343,0.94684926)"><tspan
     sodipodi:role="line"
     id="tspan3127"
     x="69.582817"
     y="597.90448"
     style="stroke-width:0.920677">e</tspan></text></svg>
